# xmcd CD database file
#
# Track frame offsets:
#	150
#	16464
#	38353
#	50381
#	66625
#	83694
#	103390
#	117498
#	132243
#	146494
#	160164
#	179563
#
# Disc length: 2544 seconds
#
# Revision: 0
# Processed by: cddbd v1.5.2PL0 Copyright (c) Steve Scherf et al.
# Submitted via: CDex 1.51
#
DISCID=a809ee0c
DTITLE=Bellamy Brothers - Live At Gilley's
DYEAR=2000
DGENRE=Country
TTITLE0=Sugar Daddy
TTITLE1=You Ain't Just Whistlin' Dixie
TTITLE2=We Can Handle It
TTITLE3=Goin' Sane
TTITLE4=For All The Wrong Reasons
TTITLE5=Foolin' Around
TTITLE6=Lovers Live Longer
TTITLE7=You're My Favorite Star
TTITLE8=Get Into Reggae Cowboy
TTITLE9=Do You Love As Good As You Look?
TTITLE10=If I Said You Had A Beautiful Body Would You Hold It Against Me
TTITLE11=Let Your Love Flow
EXTD=YEAR: 2000
EXTT0=
EXTT1=
EXTT2=
EXTT3=
EXTT4=
EXTT5=
EXTT6=
EXTT7=
EXTT8=
EXTT9=
EXTT10=
EXTT11=
PLAYORDER=
